<?xml version="1.0" encoding="utf-8"?>
<!-- Generator: Adobe Illustrator 15.0.0, SVG Export Plug-In . SVG Version: 6.00 Build 0)  -->
<!DOCTYPE svg PUBLIC "-//W3C//DTD SVG 1.1//EN" "http://www.w3.org/Graphics/SVG/1.1/DTD/svg11.dtd">
<svg version="1.1" id="レイヤー_1" xmlns="http://www.w3.org/2000/svg" xmlns:xlink="http://www.w3.org/1999/xlink" x="0px"
	 y="0px" width="318px" height="38px" viewBox="0 0 318 38" enable-background="new 0 0 318 38" xml:space="preserve">
<g>
	<g>
		<g>
			<path fill="#08287E" d="M192.898,28.432v-0.223c0.807-0.067,1.03-0.739,0.941-1.613l-1.32-12.044l-5.554,14.216h-0.112
				l-5.642-14.127l-1.298,12.314c-0.066,0.56,0.268,1.254,0.94,1.254v0.223h-3.448v-0.223c0.693-0.09,1.007-0.381,1.142-1.635
				l1.455-13.545c0.067-0.626-0.403-1.053-0.806-1.098v-0.223h3.918l4.611,11.507l4.457-11.507h3.985v0.223
				c-0.561,0-1.031,0.583-0.897,1.68l1.501,13.3c0.067,0.582,0.381,1.299,1.209,1.299v0.223H192.898z"/>
			<path fill="#08287E" d="M202.15,14.327c-0.852,0-1.523-0.672-1.523-1.522c0-0.852,0.672-1.522,1.523-1.522
				s1.523,0.671,1.523,1.522C203.674,13.655,203.002,14.327,202.15,14.327z M199.688,28.432V28.23
				c0.627-0.156,1.119-0.156,1.119-1.881v-6.828c0-1.322-0.357-1.658-1.119-1.634l-0.045-0.225l3.851-0.761v9.516
				c0,0.76,0.313,1.746,1.187,1.812v0.201H199.688z"/>
			<path fill="#08287E" d="M216.104,28.432h-9.986v-0.29l6.56-9.717c-0.963,0-2.843,0-2.843,0c-1.746,0-2.574,0.179-2.865,1.366
				l-0.314-0.045v-2.463h9.828v0.269l-6.604,9.739h2.486c1.835,0,3.179,0.09,4.007-1.813l0.336,0.09L216.104,28.432z"/>
			<path fill="#08287E" d="M226.449,28.432l-0.18-1.477c-0.672,0.873-1.545,1.836-3.492,1.836c-2.732,0-3.896-1.68-3.896-4.568
				V19.32c0-0.918-0.112-1.589-1.119-1.477v-0.225l3.783-0.76v7.725c0,1.432,0.426,2.708,2.148,2.708
				c1.39,0,2.262-1.142,2.262-2.999v-5.038c0-1.231-0.336-1.456-1.097-1.41v-0.225l3.829-0.738v9.044
				c0,1.031-0.135,2.285,1.053,2.285v0.223H226.449z"/>
			<path fill="#08287E" d="M238.496,28.432v-0.223c0.717-0.067,1.098-0.225,1.098-1.836v-5.353c0-0.983-0.046-2.664-1.971-2.664
				c-1.77,0-2.709,1.433-2.709,3.023v5.038c0,1.007,0.223,1.791,1.12,1.791v0.223h-4.904v-0.223
				c0.761-0.067,1.164-0.649,1.164-2.083V13.23c0-0.717,0.09-2.44-1.188-2.239l-0.044-0.246l3.784-0.829c0,0,0.022,6.359,0,8.576
				c0.649-0.807,1.79-1.589,3.491-1.589c1.883,0,3.963,0.895,3.963,4.32v5.127c0,0.918-0.066,1.747,1.076,1.859v0.223H238.496z"/>
			<path fill="#08287E" d="M253.611,22.947c0,4.23-1.971,4.768-2.912,4.768c-1.41,0-3.156-0.782-3.156-5.082
				c0-3.179,1.053-4.79,3.068-4.79C252.289,17.843,253.611,19.118,253.611,22.947z M256.432,22.701c0-3.27-1.949-5.844-5.82-5.844
				c-2.756,0-5.889,1.41-5.889,5.955c0,2.642,1.365,5.934,5.865,5.934C253.699,28.746,256.432,26.844,256.432,22.701z"/>
		</g>
		<g>
			<path fill="#08287E" d="M275.02,16.076c0,3-2.844,3.089-3.113,3.089h-2.061v-6.269h2.217
				C273.451,12.896,275.02,13.948,275.02,16.076z M278.556,23.822c0-2.933-2.888-3.918-4.434-4.053
				c1.681-0.381,3.829-1.164,3.829-4.03c0-2.642-2.217-4.03-5.688-4.03h-6.604v0.224c0.649,0,1.209,0.426,1.209,1.724v12.829
				c0,1.389-0.56,1.725-1.143,1.725v0.224h7.164C276.609,28.435,278.556,26.353,278.556,23.822z M275.534,23.822
				c0,2.418-1.546,3.471-3.919,3.471c-1.41,0-1.77-0.18-1.77-1.255v-5.687h2.038C273.496,20.352,275.534,21.135,275.534,23.822z"/>
			<path fill="#08287E" d="M287.078,24.763c0,0.896-0.492,2.776-2.26,2.776c-0.963,0-1.837-0.582-1.837-2.238
				c0-2.352,2.731-2.217,4.097-2.217V24.763z M291.087,28.435v-0.224c-1.077-0.09-1.321-1.075-1.321-3.09V21.27
				c0-2.015-0.158-4.343-4.635-4.343c-1.993,0-3.492,0.874-3.717,1.03l-0.179,2.149l0.291,0.045
				c0.247-0.336,1.343-2.015,3.357-2.015c1.411,0,2.194,0.963,2.194,2.015c0,0,0,1.455,0,1.77c-3.068,0-6.806,0.537-6.806,3.604
				c0,2.061,1.611,3.246,3.851,3.246c1.635,0,2.82-0.873,3.246-1.545c0.111,0.381,0.202,0.896,0.246,1.21H291.087z"/>
			<path fill="#08287E" d="M299.598,28.435v-0.224c0.715-0.18,1.049-0.561,1.049-1.836v-5.284c0-1.276-0.268-2.687-1.968-2.687
				c-1.769,0-2.665,1.389-2.665,2.977v5.039c0,0.962,0.178,1.59,1.097,1.791v0.224h-4.858v-0.224
				c0.674-0.157,1.098-0.494,1.098-1.858v-6.605c0-0.716,0.067-1.791-1.098-1.791l-0.045-0.247l3.582-0.717v1.724
				c0.65-0.872,1.614-1.746,3.56-1.746c3.091,0,3.963,1.881,3.963,4.479v4.903c0,0.918-0.021,1.746,1.119,1.858v0.224H299.598z"/>
			<path fill="#08287E" d="M312.85,28.435v-0.224c0.471,0,1.029-0.381,0.491-1.188l-2.595-3.873l-1.322,1.455v2.172
				c0,0.985,0.425,1.434,1.21,1.434v0.224h-4.813v-0.224c0.625-0.068,1.096-0.112,1.096-1.41V13.231
				c0-1.589-0.021-2.439-1.252-2.238l-0.047-0.246l3.783-0.829c0,0,0,6.941,0,12.963c3.449-3.828,3.719-4.12,3.719-4.12
				c0.716-0.806,0.447-1.209-0.18-1.298V17.24h3.918v0.225c-0.359,0-1.163,0.38-1.591,0.828l-2.708,2.911l3.984,5.664
				c0.648,0.896,1.119,1.299,1.457,1.344v0.224H312.85z"/>
		</g>
	</g>
</g>
<g>
	<g>
		
			<linearGradient id="SVGID_1_" gradientUnits="userSpaceOnUse" x1="-1385.7529" y1="-672.7764" x2="-1253.8799" y2="-672.7764" gradientTransform="matrix(1.0223 0 0 1.0223 1417.835 720.3467)">
			<stop  offset="0" style="stop-color:#FFFFFF"/>
			<stop  offset="0.15" style="stop-color:#FFFFFF"/>
			<stop  offset="0.2008" style="stop-color:#FAD0D8"/>
			<stop  offset="0.3153" style="stop-color:#EE5B78"/>
			<stop  offset="0.4" style="stop-color:#E5002D"/>
			<stop  offset="1" style="stop-color:#E5002D"/>
		</linearGradient>
		<path fill="url(#SVGID_1_)" d="M136.106,37.775c-21.791-3.842-44.229-5.854-67.139-5.854c-22.904,0-45.338,2.013-67.139,5.854
			c-0.114,0.02-0.227-0.047-0.26-0.162c-0.034-0.117,0.035-0.248,0.157-0.28c21.263-6.49,43.842-9.976,67.241-9.976
			c23.403,0,45.979,3.485,67.249,9.976c0.118,0.032,0.188,0.163,0.146,0.28C136.334,37.729,136.229,37.795,136.106,37.775z"/>
	</g>
	<g>
		<g>
			<path fill="#08287E" d="M28.809,0.25c-1.05,2.652-2.158,5.325-3.321,8.01l-1.551,3.559L22.358,8.26
				c-1.192-2.685-2.326-5.357-3.402-8.01h-8.738v0.694c0.976,0,1.771,0.803,1.772,1.799c-0.137,1.834-0.297,3.669-0.489,5.517
				l-0.567,5.602c-0.274,2.683-0.594,5.357-0.971,8.014h2.791c0.169-2.656,0.391-5.331,0.663-8.014l0.858-8.447
				c1.239,2.568,2.432,5.153,3.585,7.743l0.312,0.709c1.194,2.678,2.321,5.353,3.402,8.009h0.842
				c1.054-2.656,2.166-5.331,3.331-8.014l0.504-1.147c1.121-2.589,2.294-5.173,3.507-7.74l0.904,8.893
				c0.273,2.678,0.491,5.353,0.659,8.009h6.427c-0.375-2.656-0.701-5.331-0.969-8.014L36.209,8.26
				c-0.276-2.685-0.493-5.357-0.665-8.01H28.809z"/>
		</g>
		<path fill="#08287E" d="M57.602,19.727c0.697-1.332,1.453-2.664,2.252-4.01l7.791-12.922v-0.55H50.499v3.981l0.684,0.001
			c0-0.956,0.734-1.738,1.66-1.801c0.531-0.016,1.059-0.027,1.596-0.027h5.533c-0.688,1.301-1.423,2.609-2.21,3.919L49.923,21.33
			v0.545h18.51v-2.306c-1.307,0.103-2.626,0.158-3.942,0.158H57.602z"/>
		<g>
			<path fill="#08287E" d="M89.312,21.875c0.054-0.006,0.115-0.011,0.168-0.013c-0.109-1.327-0.168-2.654-0.168-3.992v-4.863h7.665
				v4.863c0,1.343-0.051,2.678-0.157,4.005h5.907c-0.108-1.327-0.15-2.662-0.15-4.005V6.255c0-1.338,0.042-2.678,0.15-4.01H95.21
				v0.627h0.165c0.834,0,1.512,0.66,1.571,1.494c0.021,0.626,0.03,1.259,0.03,1.889v4.598h-7.665V6.255
				c0-1.338,0.054-2.678,0.163-4.01h-7.519v0.627h0.156c0.834,0,1.515,0.653,1.569,1.482c0.024,0.634,0.037,1.271,0.037,1.901
				v13.595c-0.772,0.092-1.565,0.142-2.37,0.142c-0.873,0-1.72-0.067-2.554-0.21c-2.366-0.441-2.737-2.644-2.737-4.015V6.145
				c0-1.307,0.054-2.604,0.151-3.899H68.7v0.627h0.16c0.829,0,1.513,0.65,1.574,1.482c0.019,0.634,0.032,1.271,0.032,1.901v8.571
				c0,1.936,0.614,6.19,5.859,6.96c1.64,0.233,3.318,0.359,5.023,0.359C84.026,22.146,86.681,22.053,89.312,21.875z"/>
		</g>
		<g>
			<path fill="#08287E" d="M127.979,12.065L127.979,12.065c0,6.687-5.797,10.081-11.516,10.081c-5.721,0-11.521-3.394-11.521-10.081
				l0,0l0,0c0-6.686,5.8-10.083,11.521-10.083C122.181,1.982,127.979,5.379,127.979,12.065L127.979,12.065z M122.365,12.065
				c-0.008-3.644-1.538-7.933-5.902-7.933c-4.373,0-5.9,4.289-5.903,7.933c0.003,3.637,1.53,7.927,5.903,7.927
				C120.827,19.992,122.357,15.702,122.365,12.065z"/>
		</g>
		<g>
			<path fill="#08287E" d="M47.261,6.255c0-1.338,0.047-2.678,0.155-4.01h-7.725v0.698h0.18c0.98,0,1.772,0.81,1.772,1.809
				c0.019,0.498,0.023,1,0.023,1.503V17.87c0,1.343-0.052,2.678-0.157,4.005h5.906c-0.108-1.327-0.155-2.662-0.155-4.005V6.255z"/>
		</g>
	</g>
</g>
</svg>
